# xmcd CD database file
#
# Track frame offsets:
#	150
#	4448
#	29670
#	49757
#	66974
#	71057
#	89918
#	108992
#	126211
#	131745
#	149379
#	163937
#
# Disc length: 2440 seconds
#
# Revision: 0
# Processed by: cddbd v1.5PL3 Copyright (c) Steve Scherf et al.
# Submitted via: CDex 1.51
#
DISCID=bf09860c
DTITLE=Matt Morris - UnSpoken
DYEAR=2002
DGENRE=Blues
TTITLE0=UnSpoken: The First Impression
TTITLE1=Eternity
TTITLE2=The World I'm Living In
TTITLE3=Betting Man
TTITLE4=UnSpoken: The Second Chance
TTITLE5=Watching Over You
TTITLE6=Let Me
TTITLE7=You Won't Be There
TTITLE8=UnSpoken: The Third Half
TTITLE9=Go Away
TTITLE10=You Were Mine
TTITLE11=Be My Love
EXTD=YEAR: 2002
EXTT0=
EXTT1=
EXTT2=
EXTT3=
EXTT4=
EXTT5=
EXTT6=
EXTT7=
EXTT8=
EXTT9=
EXTT10=
EXTT11=
PLAYORDER=
